# xmcd CD database file
#
# Track frame offsets:
#	150
#	19058
#	36284
#	50866
#	73292
#	86049
#	106305
#	125610
#	139990
#	157916
#
# Disc length: 2276 seconds
#
# Revision: 0
# Processed by: cddbd v1.5.2PL0 Copyright (c) Steve Scherf et al.
# Submitted via: CDex 2.18
#
DISCID=9108e20a
DTITLE=Jason Buie - Urban Blues
DYEAR=2008
DGENRE=Blues
TTITLE0=You Upset Me
TTITLE1=I Don't Want No Woman
TTITLE2=Dimples
TTITLE3=I Believe To My Soul
TTITLE4=Wild Women
TTITLE5=Big Barbeque
TTITLE6=100 Cigarettes
TTITLE7=All By Myself
TTITLE8=Crosscut Saw
TTITLE9=Satisfy You
EXTD=YEAR: 2008
EXTT0=
EXTT1=
EXTT2=
EXTT3=
EXTT4=
EXTT5=
EXTT6=
EXTT7=
EXTT8=
EXTT9=
PLAYORDER=
